<mxfile host="app.diagrams.net" modified="2024-02-15T17:40:04.037Z" agent="Mozilla/5.0 (X11; Linux x86_64) AppleWebKit/537.36 (KHTML, like Gecko) Chrome/121.0.0.0 Safari/537.36" etag="1C5fO8kdVHgbosu_FzMZ" version="22.1.21" type="github">
  <diagram id="C5RBs43oDa-KdzZeNtuy" name="Page-1">
    <mxGraphModel dx="1604" dy="759" grid="1" gridSize="10" guides="1" tooltips="1" connect="1" arrows="1" fold="1" page="1" pageScale="1" pageWidth="827" pageHeight="1169" math="0" shadow="0">
      <root>
        <mxCell id="WIyWlLk6GJQsqaUBKTNV-0" />
        <mxCell id="WIyWlLk6GJQsqaUBKTNV-1" parent="WIyWlLk6GJQsqaUBKTNV-0" />
        <mxCell id="Y-vBi0SrUDCiKwBLveAl-0" value="" style="endArrow=none;dashed=1;html=1;rounded=0;" edge="1" parent="WIyWlLk6GJQsqaUBKTNV-1">
          <mxGeometry width="50" height="50" relative="1" as="geometry">
            <mxPoint x="40" y="80" as="sourcePoint" />
            <mxPoint x="480" y="80" as="targetPoint" />
          </mxGeometry>
        </mxCell>
        <mxCell id="Y-vBi0SrUDCiKwBLveAl-1" value="" style="endArrow=none;dashed=1;html=1;rounded=0;" edge="1" parent="WIyWlLk6GJQsqaUBKTNV-1">
          <mxGeometry width="50" height="50" relative="1" as="geometry">
            <mxPoint x="40" y="80" as="sourcePoint" />
            <mxPoint x="40" y="400" as="targetPoint" />
          </mxGeometry>
        </mxCell>
        <mxCell id="Y-vBi0SrUDCiKwBLveAl-2" value="" style="endArrow=none;dashed=1;html=1;rounded=0;" edge="1" parent="WIyWlLk6GJQsqaUBKTNV-1">
          <mxGeometry width="50" height="50" relative="1" as="geometry">
            <mxPoint x="40" y="400" as="sourcePoint" />
            <mxPoint x="480" y="400" as="targetPoint" />
          </mxGeometry>
        </mxCell>
        <mxCell id="Y-vBi0SrUDCiKwBLveAl-3" value="" style="endArrow=none;dashed=1;html=1;rounded=0;" edge="1" parent="WIyWlLk6GJQsqaUBKTNV-1">
          <mxGeometry width="50" height="50" relative="1" as="geometry">
            <mxPoint x="480" y="80" as="sourcePoint" />
            <mxPoint x="480" y="400" as="targetPoint" />
            <Array as="points">
              <mxPoint x="480" y="250" />
            </Array>
          </mxGeometry>
        </mxCell>
        <mxCell id="Y-vBi0SrUDCiKwBLveAl-7" value="" style="sketch=0;outlineConnect=0;fontColor=#232F3E;gradientColor=none;fillColor=#E7157B;strokeColor=none;dashed=0;verticalLabelPosition=bottom;verticalAlign=top;align=center;html=1;fontSize=12;fontStyle=0;aspect=fixed;pointerEvents=1;shape=mxgraph.aws4.documents;" vertex="1" parent="WIyWlLk6GJQsqaUBKTNV-1">
          <mxGeometry x="70.77" y="120" width="32.82" height="40" as="geometry" />
        </mxCell>
        <mxCell id="Y-vBi0SrUDCiKwBLveAl-8" value="&lt;font style=&quot;font-size: 10px;&quot; face=&quot;Times New Roman&quot;&gt;&lt;b&gt;Files&lt;br&gt;(pdf)&lt;/b&gt;&lt;/font&gt;" style="text;html=1;strokeColor=none;fillColor=none;align=center;verticalAlign=middle;whiteSpace=wrap;rounded=0;" vertex="1" parent="WIyWlLk6GJQsqaUBKTNV-1">
          <mxGeometry x="60" y="160" width="60" height="30" as="geometry" />
        </mxCell>
        <mxCell id="Y-vBi0SrUDCiKwBLveAl-9" value="" style="rounded=1;whiteSpace=wrap;html=1;strokeColor=#FF3399;fillColor=none;" vertex="1" parent="WIyWlLk6GJQsqaUBKTNV-1">
          <mxGeometry x="47.18000000000001" y="110" width="80" height="90" as="geometry" />
        </mxCell>
        <mxCell id="Y-vBi0SrUDCiKwBLveAl-13" value="&lt;font face=&quot;Times New Roman&quot;&gt;&lt;b&gt;Indexing Pipeline&lt;/b&gt;&lt;/font&gt;" style="text;html=1;strokeColor=#FF3399;fillColor=none;align=center;verticalAlign=middle;whiteSpace=wrap;rounded=0;shadow=0;" vertex="1" parent="WIyWlLk6GJQsqaUBKTNV-1">
          <mxGeometry x="420" y="80" width="60" height="30" as="geometry" />
        </mxCell>
        <mxCell id="Y-vBi0SrUDCiKwBLveAl-16" value="" style="endArrow=classic;html=1;rounded=0;" edge="1" parent="WIyWlLk6GJQsqaUBKTNV-1">
          <mxGeometry width="50" height="50" relative="1" as="geometry">
            <mxPoint x="140" y="160" as="sourcePoint" />
            <mxPoint x="170" y="160" as="targetPoint" />
          </mxGeometry>
        </mxCell>
        <mxCell id="Y-vBi0SrUDCiKwBLveAl-17" value="" style="sketch=0;pointerEvents=1;shadow=0;dashed=0;html=1;strokeColor=#FF3399;fillColor=#FF3399;labelPosition=center;verticalLabelPosition=bottom;verticalAlign=top;outlineConnect=0;align=center;shape=mxgraph.office.concepts.upload;" vertex="1" parent="WIyWlLk6GJQsqaUBKTNV-1">
          <mxGeometry x="180" y="140" width="30" height="40" as="geometry" />
        </mxCell>
        <mxCell id="Y-vBi0SrUDCiKwBLveAl-18" value="&lt;font face=&quot;Monserrat&quot;&gt;&lt;b&gt;Load&lt;/b&gt;&lt;br&gt;&lt;/font&gt;" style="text;html=1;strokeColor=none;fillColor=none;align=center;verticalAlign=middle;whiteSpace=wrap;rounded=0;" vertex="1" parent="WIyWlLk6GJQsqaUBKTNV-1">
          <mxGeometry x="165" y="104.6" width="60" height="30" as="geometry" />
        </mxCell>
        <mxCell id="Y-vBi0SrUDCiKwBLveAl-19" value="" style="endArrow=classic;html=1;rounded=0;" edge="1" parent="WIyWlLk6GJQsqaUBKTNV-1">
          <mxGeometry width="50" height="50" relative="1" as="geometry">
            <mxPoint x="220" y="159" as="sourcePoint" />
            <mxPoint x="250" y="159" as="targetPoint" />
            <Array as="points">
              <mxPoint x="250" y="159" />
            </Array>
          </mxGeometry>
        </mxCell>
        <mxCell id="Y-vBi0SrUDCiKwBLveAl-21" value="" style="shadow=0;dashed=0;html=1;strokeColor=#FF3399;fillColor=none;labelPosition=center;verticalLabelPosition=bottom;verticalAlign=top;align=center;outlineConnect=0;shape=mxgraph.veeam.2d.file;" vertex="1" parent="WIyWlLk6GJQsqaUBKTNV-1">
          <mxGeometry x="260" y="134.6" width="36.8" height="50.8" as="geometry" />
        </mxCell>
        <mxCell id="Y-vBi0SrUDCiKwBLveAl-25" value="" style="endArrow=none;dashed=1;html=1;dashPattern=1 3;strokeWidth=2;rounded=0;entryX=1.087;entryY=0.5;entryDx=0;entryDy=0;entryPerimeter=0;" edge="1" parent="WIyWlLk6GJQsqaUBKTNV-1">
          <mxGeometry width="50" height="50" relative="1" as="geometry">
            <mxPoint x="260" y="160" as="sourcePoint" />
            <mxPoint x="300" y="160" as="targetPoint" />
            <Array as="points">
              <mxPoint x="280" y="160" />
            </Array>
          </mxGeometry>
        </mxCell>
        <mxCell id="Y-vBi0SrUDCiKwBLveAl-26" value="" style="endArrow=none;dashed=1;html=1;dashPattern=1 3;strokeWidth=2;rounded=0;entryX=1.087;entryY=0.5;entryDx=0;entryDy=0;entryPerimeter=0;" edge="1" parent="WIyWlLk6GJQsqaUBKTNV-1">
          <mxGeometry width="50" height="50" relative="1" as="geometry">
            <mxPoint x="260" y="150" as="sourcePoint" />
            <mxPoint x="300" y="150" as="targetPoint" />
          </mxGeometry>
        </mxCell>
        <mxCell id="Y-vBi0SrUDCiKwBLveAl-29" value="" style="endArrow=none;dashed=1;html=1;dashPattern=1 3;strokeWidth=2;rounded=0;entryX=1.087;entryY=0.5;entryDx=0;entryDy=0;entryPerimeter=0;" edge="1" parent="WIyWlLk6GJQsqaUBKTNV-1">
          <mxGeometry width="50" height="50" relative="1" as="geometry">
            <mxPoint x="260" y="170" as="sourcePoint" />
            <mxPoint x="300" y="170" as="targetPoint" />
            <Array as="points" />
          </mxGeometry>
        </mxCell>
        <mxCell id="Y-vBi0SrUDCiKwBLveAl-30" value="&lt;font face=&quot;Monserrat&quot;&gt;&lt;b&gt;Split&lt;/b&gt;&lt;br&gt;&lt;/font&gt;" style="text;html=1;strokeColor=none;fillColor=none;align=center;verticalAlign=middle;whiteSpace=wrap;rounded=0;" vertex="1" parent="WIyWlLk6GJQsqaUBKTNV-1">
          <mxGeometry x="248.4" y="104.6" width="60" height="30" as="geometry" />
        </mxCell>
        <mxCell id="Y-vBi0SrUDCiKwBLveAl-31" value="&lt;font face=&quot;Times New Roman&quot; style=&quot;font-size: 10px;&quot;&gt;NLTK Splitter&lt;/font&gt;" style="swimlane;fontStyle=0;childLayout=stackLayout;horizontal=1;startSize=30;horizontalStack=0;resizeParent=1;resizeParentMax=0;resizeLast=0;collapsible=1;marginBottom=0;whiteSpace=wrap;html=1;" vertex="1" parent="WIyWlLk6GJQsqaUBKTNV-1">
          <mxGeometry x="228.4" y="220" width="100" height="120" as="geometry">
            <mxRectangle x="250" y="210" width="110" height="30" as="alternateBounds" />
          </mxGeometry>
        </mxCell>
        <mxCell id="Y-vBi0SrUDCiKwBLveAl-32" value="&lt;font face=&quot;Times New Roman&quot; style=&quot;font-size: 10px;&quot;&gt;Chunk 1.2,1.2,1.3,...&lt;/font&gt;" style="text;strokeColor=none;fillColor=none;align=left;verticalAlign=middle;spacingLeft=4;spacingRight=4;overflow=hidden;points=[[0,0.5],[1,0.5]];portConstraint=eastwest;rotatable=0;whiteSpace=wrap;html=1;" vertex="1" parent="Y-vBi0SrUDCiKwBLveAl-31">
          <mxGeometry y="30" width="100" height="30" as="geometry" />
        </mxCell>
        <mxCell id="Y-vBi0SrUDCiKwBLveAl-33" value="&lt;font face=&quot;Times New Roman&quot; style=&quot;font-size: 10px;&quot;&gt;Chunk 2.1,2.2,2.3,...&lt;/font&gt;" style="text;strokeColor=none;fillColor=none;align=left;verticalAlign=middle;spacingLeft=4;spacingRight=4;overflow=hidden;points=[[0,0.5],[1,0.5]];portConstraint=eastwest;rotatable=0;whiteSpace=wrap;html=1;" vertex="1" parent="Y-vBi0SrUDCiKwBLveAl-31">
          <mxGeometry y="60" width="100" height="30" as="geometry" />
        </mxCell>
        <mxCell id="Y-vBi0SrUDCiKwBLveAl-34" value="&lt;font face=&quot;Times New Roman&quot; style=&quot;font-size: 10px;&quot;&gt;Chunk 3.1,3.2,3.3,...&lt;/font&gt;" style="text;strokeColor=none;fillColor=none;align=left;verticalAlign=middle;spacingLeft=4;spacingRight=4;overflow=hidden;points=[[0,0.5],[1,0.5]];portConstraint=eastwest;rotatable=0;whiteSpace=wrap;html=1;" vertex="1" parent="Y-vBi0SrUDCiKwBLveAl-31">
          <mxGeometry y="90" width="100" height="30" as="geometry" />
        </mxCell>
        <mxCell id="Y-vBi0SrUDCiKwBLveAl-36" value="" style="endArrow=classic;html=1;rounded=0;entryX=0.5;entryY=0;entryDx=0;entryDy=0;" edge="1" parent="WIyWlLk6GJQsqaUBKTNV-1" target="Y-vBi0SrUDCiKwBLveAl-31">
          <mxGeometry width="50" height="50" relative="1" as="geometry">
            <mxPoint x="278.4" y="184.60000000000002" as="sourcePoint" />
            <mxPoint x="328.4" y="134.60000000000002" as="targetPoint" />
          </mxGeometry>
        </mxCell>
        <mxCell id="Y-vBi0SrUDCiKwBLveAl-37" value="" style="sketch=0;pointerEvents=1;shadow=0;dashed=0;html=1;strokeColor=#FF3399;fillColor=#FF3399;labelPosition=center;verticalLabelPosition=bottom;verticalAlign=top;align=center;outlineConnect=0;shape=mxgraph.veeam2.datastore_empty;" vertex="1" parent="WIyWlLk6GJQsqaUBKTNV-1">
          <mxGeometry x="370" y="134.6" width="50" height="75.4" as="geometry" />
        </mxCell>
        <mxCell id="Y-vBi0SrUDCiKwBLveAl-38" value="" style="endArrow=classic;html=1;rounded=0;" edge="1" parent="WIyWlLk6GJQsqaUBKTNV-1">
          <mxGeometry width="50" height="50" relative="1" as="geometry">
            <mxPoint x="320" y="159" as="sourcePoint" />
            <mxPoint x="350" y="159" as="targetPoint" />
            <Array as="points">
              <mxPoint x="350" y="159" />
            </Array>
          </mxGeometry>
        </mxCell>
        <mxCell id="Y-vBi0SrUDCiKwBLveAl-39" value="&lt;font face=&quot;Monserrat&quot;&gt;&lt;b&gt;Embed&lt;/b&gt;&lt;br&gt;&lt;/font&gt;" style="text;html=1;strokeColor=none;fillColor=none;align=center;verticalAlign=middle;whiteSpace=wrap;rounded=0;" vertex="1" parent="WIyWlLk6GJQsqaUBKTNV-1">
          <mxGeometry x="365" y="104.6" width="60" height="30" as="geometry" />
        </mxCell>
        <mxCell id="Y-vBi0SrUDCiKwBLveAl-40" value="&lt;font face=&quot;Times New Roman&quot; style=&quot;font-size: 10px;&quot;&gt;OpenAI Embedding&lt;/font&gt;" style="swimlane;fontStyle=0;childLayout=stackLayout;horizontal=1;startSize=30;horizontalStack=0;resizeParent=1;resizeParentMax=0;resizeLast=0;collapsible=1;marginBottom=0;whiteSpace=wrap;html=1;" vertex="1" parent="WIyWlLk6GJQsqaUBKTNV-1">
          <mxGeometry x="350" y="220" width="100" height="120" as="geometry">
            <mxRectangle x="250" y="210" width="110" height="30" as="alternateBounds" />
          </mxGeometry>
        </mxCell>
        <mxCell id="Y-vBi0SrUDCiKwBLveAl-41" value="&lt;font face=&quot;Times New Roman&quot; style=&quot;font-size: 10px;&quot;&gt;emb 1.1, 1.2, 1.3,...&lt;/font&gt;" style="text;strokeColor=none;fillColor=none;align=left;verticalAlign=middle;spacingLeft=4;spacingRight=4;overflow=hidden;points=[[0,0.5],[1,0.5]];portConstraint=eastwest;rotatable=0;whiteSpace=wrap;html=1;" vertex="1" parent="Y-vBi0SrUDCiKwBLveAl-40">
          <mxGeometry y="30" width="100" height="30" as="geometry" />
        </mxCell>
        <mxCell id="Y-vBi0SrUDCiKwBLveAl-42" value="&lt;font face=&quot;Times New Roman&quot; style=&quot;font-size: 10px;&quot;&gt;emb 2.1,2.2,2.3,...&lt;/font&gt;" style="text;strokeColor=none;fillColor=none;align=left;verticalAlign=middle;spacingLeft=4;spacingRight=4;overflow=hidden;points=[[0,0.5],[1,0.5]];portConstraint=eastwest;rotatable=0;whiteSpace=wrap;html=1;" vertex="1" parent="Y-vBi0SrUDCiKwBLveAl-40">
          <mxGeometry y="60" width="100" height="30" as="geometry" />
        </mxCell>
        <mxCell id="Y-vBi0SrUDCiKwBLveAl-43" value="&lt;font face=&quot;Times New Roman&quot; style=&quot;font-size: 10px;&quot;&gt;emb 3.1,3.2,3.3,...&lt;/font&gt;" style="text;strokeColor=none;fillColor=none;align=left;verticalAlign=middle;spacingLeft=4;spacingRight=4;overflow=hidden;points=[[0,0.5],[1,0.5]];portConstraint=eastwest;rotatable=0;whiteSpace=wrap;html=1;" vertex="1" parent="Y-vBi0SrUDCiKwBLveAl-40">
          <mxGeometry y="90" width="100" height="30" as="geometry" />
        </mxCell>
        <mxCell id="Y-vBi0SrUDCiKwBLveAl-46" value="" style="endArrow=none;dashed=1;html=1;rounded=0;" edge="1" parent="WIyWlLk6GJQsqaUBKTNV-1">
          <mxGeometry width="50" height="50" relative="1" as="geometry">
            <mxPoint x="440" y="620" as="sourcePoint" />
            <mxPoint x="830" y="620" as="targetPoint" />
          </mxGeometry>
        </mxCell>
        <mxCell id="Y-vBi0SrUDCiKwBLveAl-47" value="" style="endArrow=none;dashed=1;html=1;rounded=0;" edge="1" parent="WIyWlLk6GJQsqaUBKTNV-1">
          <mxGeometry width="50" height="50" relative="1" as="geometry">
            <mxPoint x="440" y="400" as="sourcePoint" />
            <mxPoint x="440" y="620" as="targetPoint" />
          </mxGeometry>
        </mxCell>
        <mxCell id="Y-vBi0SrUDCiKwBLveAl-48" value="" style="endArrow=none;dashed=1;html=1;rounded=0;" edge="1" parent="WIyWlLk6GJQsqaUBKTNV-1">
          <mxGeometry width="50" height="50" relative="1" as="geometry">
            <mxPoint x="480" y="120" as="sourcePoint" />
            <mxPoint x="830" y="120" as="targetPoint" />
          </mxGeometry>
        </mxCell>
        <mxCell id="Y-vBi0SrUDCiKwBLveAl-49" value="" style="endArrow=none;dashed=1;html=1;rounded=0;" edge="1" parent="WIyWlLk6GJQsqaUBKTNV-1">
          <mxGeometry width="50" height="50" relative="1" as="geometry">
            <mxPoint x="830" y="120" as="sourcePoint" />
            <mxPoint x="830" y="620" as="targetPoint" />
            <Array as="points">
              <mxPoint x="830" y="360" />
            </Array>
          </mxGeometry>
        </mxCell>
        <mxCell id="Y-vBi0SrUDCiKwBLveAl-50" value="&lt;font face=&quot;Times New Roman&quot;&gt;&lt;b&gt;RAG Pipeline&lt;/b&gt;&lt;/font&gt;" style="text;html=1;strokeColor=#FF3399;fillColor=none;align=center;verticalAlign=middle;whiteSpace=wrap;rounded=0;shadow=0;" vertex="1" parent="WIyWlLk6GJQsqaUBKTNV-1">
          <mxGeometry x="767" y="120" width="60" height="30" as="geometry" />
        </mxCell>
        <mxCell id="Y-vBi0SrUDCiKwBLveAl-52" value="" style="edgeStyle=orthogonalEdgeStyle;rounded=0;orthogonalLoop=1;jettySize=auto;html=1;" edge="1" parent="WIyWlLk6GJQsqaUBKTNV-1" source="Y-vBi0SrUDCiKwBLveAl-51" target="Y-vBi0SrUDCiKwBLveAl-41">
          <mxGeometry relative="1" as="geometry" />
        </mxCell>
        <mxCell id="Y-vBi0SrUDCiKwBLveAl-51" value="&lt;font face=&quot;Times New Roman&quot;&gt;Search and Retrieval Relevant Information&lt;/font&gt;" style="rounded=1;whiteSpace=wrap;html=1;shadow=0;strokeColor=#FF3399;" vertex="1" parent="WIyWlLk6GJQsqaUBKTNV-1">
          <mxGeometry x="520" y="260" width="120" height="60" as="geometry" />
        </mxCell>
        <mxCell id="Y-vBi0SrUDCiKwBLveAl-53" value="" style="sketch=0;outlineConnect=0;fontColor=#232F3E;gradientColor=none;fillColor=#FF3399;strokeColor=none;dashed=0;verticalLabelPosition=bottom;verticalAlign=top;align=center;html=1;fontSize=12;fontStyle=0;aspect=fixed;pointerEvents=1;shape=mxgraph.aws4.metrics;" vertex="1" parent="WIyWlLk6GJQsqaUBKTNV-1">
          <mxGeometry x="550" y="169" width="56.03" height="51" as="geometry" />
        </mxCell>
        <mxCell id="Y-vBi0SrUDCiKwBLveAl-54" value="&lt;font face=&quot;Monserrat&quot;&gt;&lt;b&gt;Retrieval evaluation&lt;/b&gt;&lt;br&gt;&lt;/font&gt;" style="text;html=1;strokeColor=none;fillColor=none;align=center;verticalAlign=middle;whiteSpace=wrap;rounded=0;" vertex="1" parent="WIyWlLk6GJQsqaUBKTNV-1">
          <mxGeometry x="550" y="140" width="60" height="30" as="geometry" />
        </mxCell>
        <mxCell id="Y-vBi0SrUDCiKwBLveAl-55" value="" style="html=1;verticalLabelPosition=bottom;align=center;labelBackgroundColor=#ffffff;verticalAlign=top;strokeWidth=2;strokeColor=#FF3399;shadow=0;dashed=0;shape=mxgraph.ios7.icons.user;" vertex="1" parent="WIyWlLk6GJQsqaUBKTNV-1">
          <mxGeometry x="450" y="430" width="40" height="40" as="geometry" />
        </mxCell>
        <mxCell id="Y-vBi0SrUDCiKwBLveAl-56" value="&lt;font face=&quot;Monserrat&quot;&gt;&lt;b&gt;User&lt;/b&gt;&lt;br&gt;&lt;/font&gt;" style="text;html=1;strokeColor=none;fillColor=none;align=center;verticalAlign=middle;whiteSpace=wrap;rounded=0;" vertex="1" parent="WIyWlLk6GJQsqaUBKTNV-1">
          <mxGeometry x="440" y="480" width="60" height="30" as="geometry" />
        </mxCell>
        <mxCell id="Y-vBi0SrUDCiKwBLveAl-57" value="" style="endArrow=classic;html=1;rounded=0;" edge="1" parent="WIyWlLk6GJQsqaUBKTNV-1">
          <mxGeometry width="50" height="50" relative="1" as="geometry">
            <mxPoint x="500" y="460" as="sourcePoint" />
            <mxPoint x="560" y="460" as="targetPoint" />
          </mxGeometry>
        </mxCell>
        <mxCell id="Y-vBi0SrUDCiKwBLveAl-58" value="&lt;font face=&quot;Monserrat&quot;&gt;Prompt&lt;br&gt;&lt;/font&gt;" style="text;html=1;strokeColor=none;fillColor=none;align=center;verticalAlign=middle;whiteSpace=wrap;rounded=0;" vertex="1" parent="WIyWlLk6GJQsqaUBKTNV-1">
          <mxGeometry x="500" y="430" width="60" height="30" as="geometry" />
        </mxCell>
        <mxCell id="Y-vBi0SrUDCiKwBLveAl-60" value="" style="sketch=0;aspect=fixed;pointerEvents=1;shadow=0;dashed=0;html=1;strokeColor=#FFCCE6;labelPosition=center;verticalLabelPosition=bottom;verticalAlign=top;align=center;fillColor=#FFCCE6;shape=mxgraph.azure.computer" vertex="1" parent="WIyWlLk6GJQsqaUBKTNV-1">
          <mxGeometry x="570" y="423" width="96.67" height="87" as="geometry" />
        </mxCell>
        <mxCell id="Y-vBi0SrUDCiKwBLveAl-61" value="&lt;font face=&quot;Monserrat&quot;&gt;&lt;b&gt;User&lt;/b&gt;&lt;br&gt;&lt;/font&gt;" style="text;html=1;strokeColor=none;fillColor=none;align=center;verticalAlign=middle;whiteSpace=wrap;rounded=0;" vertex="1" parent="WIyWlLk6GJQsqaUBKTNV-1">
          <mxGeometry x="570" y="442.75" width="60" height="30" as="geometry" />
        </mxCell>
        <mxCell id="Y-vBi0SrUDCiKwBLveAl-62" value="&lt;font face=&quot;Monserrat&quot;&gt;&lt;b&gt;Chatbot&lt;/b&gt;&lt;br&gt;&lt;/font&gt;" style="text;html=1;strokeColor=none;fillColor=none;align=center;verticalAlign=middle;whiteSpace=wrap;rounded=0;" vertex="1" parent="WIyWlLk6GJQsqaUBKTNV-1">
          <mxGeometry x="606.03" y="460" width="60" height="30" as="geometry" />
        </mxCell>
        <mxCell id="Y-vBi0SrUDCiKwBLveAl-65" value="" style="html=1;verticalLabelPosition=bottom;align=center;labelBackgroundColor=#ffffff;verticalAlign=top;strokeWidth=2;strokeColor=#FF3399;shadow=0;dashed=0;shape=mxgraph.ios7.icons.message;fillColor=none;" vertex="1" parent="WIyWlLk6GJQsqaUBKTNV-1">
          <mxGeometry x="630" y="450.5" width="20" height="14.5" as="geometry" />
        </mxCell>
        <mxCell id="Y-vBi0SrUDCiKwBLveAl-66" value="" style="html=1;verticalLabelPosition=bottom;align=center;labelBackgroundColor=#ffffff;verticalAlign=top;strokeWidth=2;strokeColor=#FF3399;shadow=0;dashed=0;shape=mxgraph.ios7.icons.message;fillColor=none;" vertex="1" parent="WIyWlLk6GJQsqaUBKTNV-1">
          <mxGeometry x="586.03" y="436" width="20" height="14.5" as="geometry" />
        </mxCell>
        <mxCell id="Y-vBi0SrUDCiKwBLveAl-68" value="" style="endArrow=classic;startArrow=classic;html=1;rounded=0;" edge="1" parent="WIyWlLk6GJQsqaUBKTNV-1">
          <mxGeometry width="50" height="50" relative="1" as="geometry">
            <mxPoint x="601" y="420" as="sourcePoint" />
            <mxPoint x="600" y="330" as="targetPoint" />
            <Array as="points">
              <mxPoint x="600" y="360" />
            </Array>
          </mxGeometry>
        </mxCell>
        <mxCell id="Y-vBi0SrUDCiKwBLveAl-69" value="&lt;font face=&quot;Monserrat&quot;&gt;&lt;b&gt;Prompt&lt;/b&gt;&lt;br&gt;&lt;/font&gt;" style="text;html=1;strokeColor=none;fillColor=none;align=center;verticalAlign=middle;whiteSpace=wrap;rounded=0;" vertex="1" parent="WIyWlLk6GJQsqaUBKTNV-1">
          <mxGeometry x="526.03" y="350" width="60" height="30" as="geometry" />
        </mxCell>
        <mxCell id="Y-vBi0SrUDCiKwBLveAl-70" value="&lt;font face=&quot;Monserrat&quot;&gt;&lt;b&gt;Relevant Context&lt;/b&gt;&lt;br&gt;&lt;/font&gt;" style="text;html=1;strokeColor=none;fillColor=none;align=center;verticalAlign=middle;whiteSpace=wrap;rounded=0;" vertex="1" parent="WIyWlLk6GJQsqaUBKTNV-1">
          <mxGeometry x="600" y="350" width="60" height="30" as="geometry" />
        </mxCell>
        <mxCell id="Y-vBi0SrUDCiKwBLveAl-72" value="" style="sketch=0;outlineConnect=0;fontColor=#232F3E;gradientColor=none;fillColor=#FF3399;strokeColor=none;dashed=0;verticalLabelPosition=bottom;verticalAlign=top;align=center;html=1;fontSize=12;fontStyle=0;aspect=fixed;pointerEvents=1;shape=mxgraph.aws4.sagemaker_model;" vertex="1" parent="WIyWlLk6GJQsqaUBKTNV-1">
          <mxGeometry x="780" y="437.5" width="32.5" height="32.5" as="geometry" />
        </mxCell>
        <mxCell id="Y-vBi0SrUDCiKwBLveAl-73" value="&lt;font face=&quot;Monserrat&quot;&gt;&lt;b&gt;LLM&lt;/b&gt;&lt;br&gt;&lt;/font&gt;" style="text;html=1;strokeColor=none;fillColor=none;align=center;verticalAlign=middle;whiteSpace=wrap;rounded=0;" vertex="1" parent="WIyWlLk6GJQsqaUBKTNV-1">
          <mxGeometry x="766.25" y="393" width="60" height="30" as="geometry" />
        </mxCell>
        <mxCell id="Y-vBi0SrUDCiKwBLveAl-74" value="" style="ellipse;whiteSpace=wrap;html=1;fillColor=none;strokeColor=#FF3399;" vertex="1" parent="WIyWlLk6GJQsqaUBKTNV-1">
          <mxGeometry x="764.75" y="418.88" width="63" height="62.25" as="geometry" />
        </mxCell>
        <mxCell id="Y-vBi0SrUDCiKwBLveAl-76" value="" style="endArrow=classic;startArrow=classic;html=1;rounded=0;" edge="1" parent="WIyWlLk6GJQsqaUBKTNV-1">
          <mxGeometry width="50" height="50" relative="1" as="geometry">
            <mxPoint x="670" y="461" as="sourcePoint" />
            <mxPoint x="760" y="461" as="targetPoint" />
            <Array as="points" />
          </mxGeometry>
        </mxCell>
        <mxCell id="Y-vBi0SrUDCiKwBLveAl-77" value="&lt;font face=&quot;Monserrat&quot;&gt;&lt;b&gt;Augmentation&lt;/b&gt;&lt;br&gt;&lt;/font&gt;" style="text;html=1;strokeColor=none;fillColor=none;align=center;verticalAlign=middle;whiteSpace=wrap;rounded=0;" vertex="1" parent="WIyWlLk6GJQsqaUBKTNV-1">
          <mxGeometry x="690" y="393" width="60" height="30" as="geometry" />
        </mxCell>
        <mxCell id="Y-vBi0SrUDCiKwBLveAl-78" value="&lt;font face=&quot;Monserrat&quot;&gt;&lt;b&gt;&lt;font style=&quot;font-size: 10px;&quot;&gt;&lt;i style=&quot;&quot;&gt;(prompt + context)&lt;/i&gt;&lt;/font&gt;&lt;/b&gt;&lt;br&gt;&lt;/font&gt;" style="text;html=1;strokeColor=none;fillColor=none;align=center;verticalAlign=middle;whiteSpace=wrap;rounded=0;" vertex="1" parent="WIyWlLk6GJQsqaUBKTNV-1">
          <mxGeometry x="680" y="420.5" width="80" height="30" as="geometry" />
        </mxCell>
        <mxCell id="Y-vBi0SrUDCiKwBLveAl-10" value="&lt;font face=&quot;Monserrat&quot;&gt;&lt;b&gt;SOURCE OF KNOWLEDGE&lt;/b&gt;&lt;br&gt;&lt;/font&gt;" style="text;html=1;strokeColor=none;fillColor=none;align=center;verticalAlign=middle;whiteSpace=wrap;rounded=0;" vertex="1" parent="WIyWlLk6GJQsqaUBKTNV-1">
          <mxGeometry x="40" y="363" width="100" height="30" as="geometry" />
        </mxCell>
        <mxCell id="Y-vBi0SrUDCiKwBLveAl-79" value="&lt;font face=&quot;Monserrat&quot;&gt;&lt;b&gt;Response Generation&lt;/b&gt;&lt;br&gt;&lt;/font&gt;" style="text;html=1;strokeColor=none;fillColor=none;align=center;verticalAlign=middle;whiteSpace=wrap;rounded=0;" vertex="1" parent="WIyWlLk6GJQsqaUBKTNV-1">
          <mxGeometry x="690" y="472.75" width="60" height="30" as="geometry" />
        </mxCell>
        <mxCell id="Y-vBi0SrUDCiKwBLveAl-80" value="" style="sketch=0;outlineConnect=0;fontColor=#232F3E;gradientColor=none;fillColor=#FF3399;strokeColor=none;dashed=0;verticalLabelPosition=bottom;verticalAlign=top;align=center;html=1;fontSize=12;fontStyle=0;aspect=fixed;pointerEvents=1;shape=mxgraph.aws4.metrics;" vertex="1" parent="WIyWlLk6GJQsqaUBKTNV-1">
          <mxGeometry x="691.99" y="520" width="56.03" height="51" as="geometry" />
        </mxCell>
        <mxCell id="Y-vBi0SrUDCiKwBLveAl-81" value="&lt;font face=&quot;Monserrat&quot;&gt;&lt;b&gt;Generation evaluation&lt;/b&gt;&lt;br&gt;&lt;/font&gt;" style="text;html=1;strokeColor=none;fillColor=none;align=center;verticalAlign=middle;whiteSpace=wrap;rounded=0;" vertex="1" parent="WIyWlLk6GJQsqaUBKTNV-1">
          <mxGeometry x="691.99" y="580" width="60" height="30" as="geometry" />
        </mxCell>
        <mxCell id="Y-vBi0SrUDCiKwBLveAl-85" value="&lt;font face=&quot;Monserrat&quot;&gt;&lt;font style=&quot;font-size: 18px;&quot;&gt;1&lt;/font&gt;&lt;br&gt;&lt;/font&gt;" style="text;html=1;strokeColor=none;fillColor=none;align=center;verticalAlign=middle;whiteSpace=wrap;rounded=0;" vertex="1" parent="WIyWlLk6GJQsqaUBKTNV-1">
          <mxGeometry x="500" y="134.6" width="60" height="30" as="geometry" />
        </mxCell>
        <mxCell id="Y-vBi0SrUDCiKwBLveAl-86" value="&lt;font face=&quot;Monserrat&quot;&gt;&lt;font style=&quot;font-size: 18px;&quot;&gt;2&lt;/font&gt;&lt;br&gt;&lt;/font&gt;" style="text;html=1;strokeColor=none;fillColor=none;align=center;verticalAlign=middle;whiteSpace=wrap;rounded=0;" vertex="1" parent="WIyWlLk6GJQsqaUBKTNV-1">
          <mxGeometry x="650" y="520" width="60" height="30" as="geometry" />
        </mxCell>
        <mxCell id="Y-vBi0SrUDCiKwBLveAl-89" value="" style="ellipse;whiteSpace=wrap;html=1;fillColor=none;strokeColor=#FF3399;" vertex="1" parent="WIyWlLk6GJQsqaUBKTNV-1">
          <mxGeometry x="515" y="132.35" width="30" height="32.25" as="geometry" />
        </mxCell>
        <mxCell id="Y-vBi0SrUDCiKwBLveAl-90" value="" style="ellipse;whiteSpace=wrap;html=1;fillColor=none;strokeColor=#FF3399;" vertex="1" parent="WIyWlLk6GJQsqaUBKTNV-1">
          <mxGeometry x="665" y="517.75" width="30" height="32.25" as="geometry" />
        </mxCell>
      </root>
    </mxGraphModel>
  </diagram>
</mxfile>
